# Made in Blockbench 5.1.1
mtllib track-one-sided.mtl

o Wall
v -0.9375 0.21875 0.5
v -0.9375 0.21875 -0.5
v -0.9375 0.09375 0.5
v -0.9375 0.09375 -0.5
v -1 0.21875 0.5
v -1 0.21875 -0.5
v -1 0.09375 0.5
v -1 0.09375 -0.5
vt 0.125 0.734375
vt 0 0.734375
vt 0 0.71875
vt 0.125 0.71875
vt 0.125 0.71875
vt 0.125 0.734375
vt 0 0.734375
vt 0 0.71875
vt 0 0.609375
vt 0.125 0.609375
vt 0.125 0.734375
vt 0 0.734375
vt 0.125 0.609375
vt 0.125 0.734375
vt 0 0.734375
vt 0 0.609375
vt 0.125 0.71875
vt 0.125 0.734375
vt 0 0.734375
vt 0 0.71875
vt 0.125 0.734375
vt 0 0.734375
vt 0 0.71875
vt 0.125 0.71875
vn 1 0 0
vn -1 0 0
vn 0 1 0
vn 0 -1 0
vn 0 0 1
vn 0 0 -1
usemtl m_15656112-97a1-935c-30bb-fba7192d945d
f 2/1/1 1/2/1 3/3/1 4/4/1
f 7/5/2 5/6/2 6/7/2 8/8/2
f 5/9/3 1/10/3 2/11/3 6/12/3
f 4/13/4 3/14/4 7/15/4 8/16/4
f 3/17/5 1/18/5 5/19/5 7/20/5
f 6/21/6 2/22/6 4/23/6 8/24/6
o Road Surface
v 1 0.09375 0.5
v 1 0.09375 -0.5
v 1 0.03125 0.5
v 1 0.03125 -0.5
v -1 0.09375 0.5
v -1 0.09375 -0.5
v -1 0.03125 0.5
v -1 0.03125 -0.5
vt 0.3828125 0.96875
vt 0.2578125 0.96875
vt 0.2578125 0.9609375
vt 0.3828125 0.9609375
vt 0.3828125 0.9453125
vt 0.3828125 0.953125
vt 0.2578125 0.953125
vt 0.2578125 0.9453125
vt 0 0.875
vt 0.25 0.875
vt 0.25 1
vt 0 1
vt 0.25 0.7421875
vt 0.25 0.8671875
vt 0 0.8671875
vt 0 0.7421875
vt 0.5078125 0.9921875
vt 0.5078125 1
vt 0.2578125 1
vt 0.2578125 0.9921875
vt 0.5078125 0.984375
vt 0.2578125 0.984375
vt 0.2578125 0.9765625
vt 0.5078125 0.9765625
vn 1 0 0
vn -1 0 0
vn 0 1 0
vn 0 -1 0
vn 0 0 1
vn 0 0 -1
usemtl m_15656112-97a1-935c-30bb-fba7192d945d
f 10/25/7 9/26/7 11/27/7 12/28/7
f 15/29/8 13/30/8 14/31/8 16/32/8
f 13/33/9 9/34/9 10/35/9 14/36/9
f 12/37/10 11/38/10 15/39/10 16/40/10
f 11/41/11 9/42/11 13/43/11 15/44/11
f 14/45/12 10/46/12 12/47/12 16/48/12
o Wall
v 1 0.21875 0.5
v 1 0.21875 -0.5
v 1 0.09375 0.5
v 1 0.09375 -0.5
v 0.9375 0.21875 0.5
v 0.9375 0.21875 -0.5
v 0.9375 0.09375 0.5
v 0.9375 0.09375 -0.5
vt 0.125 0.734375
vt 0 0.734375
vt 0 0.71875
vt 0.125 0.71875
vt 0.125 0.71875
vt 0.125 0.734375
vt 0 0.734375
vt 0 0.71875
vt 0 0.609375
vt 0.125 0.609375
vt 0.125 0.734375
vt 0 0.734375
vt 0.125 0.609375
vt 0.125 0.734375
vt 0 0.734375
vt 0 0.609375
vt 0.125 0.71875
vt 0.125 0.734375
vt 0 0.734375
vt 0 0.71875
vt 0.125 0.734375
vt 0 0.734375
vt 0 0.71875
vt 0.125 0.71875
vn 1 0 0
vn -1 0 0
vn 0 1 0
vn 0 -1 0
vn 0 0 1
vn 0 0 -1
usemtl m_15656112-97a1-935c-30bb-fba7192d945d
f 18/49/13 17/50/13 19/51/13 20/52/13
f 23/53/14 21/54/14 22/55/14 24/56/14
f 21/57/15 17/58/15 18/59/15 22/60/15
f 20/61/16 19/62/16 23/63/16 24/64/16
f 19/65/17 17/66/17 21/67/17 23/68/17
f 22/69/18 18/70/18 20/71/18 24/72/18